<mxfile host="app.diagrams.net" modified="2022-07-14T22:21:53.198Z" agent="5.0 (Macintosh; Intel Mac OS X 10_15_7) AppleWebKit/605.1.15 (KHTML, like Gecko) Version/15.5 Safari/605.1.15" etag="hxdqAAqGTBkypAf-r3Wr" compressed="false" version="20.0.3" type="github">
  <diagram id="8bbJCWgLKpiLhmCPaEWU" name="Page-1">
    <mxGraphModel dx="1186" dy="798" grid="1" gridSize="10" guides="1" tooltips="1" connect="0" arrows="1" fold="1" page="1" pageScale="1" pageWidth="1169" pageHeight="827" math="0" shadow="0">
      <root>
        <mxCell id="0" />
        <mxCell id="1" parent="0" />
        <mxCell id="HRD3fttDgB3bU4ztWuwS-48" value="" style="shape=table;startSize=0;container=1;collapsible=0;childLayout=tableLayout;rounded=1;strokeWidth=2;fontSize=6;" parent="1" vertex="1">
          <mxGeometry x="40" y="30" width="240" height="40" as="geometry" />
        </mxCell>
        <mxCell id="HRD3fttDgB3bU4ztWuwS-49" value="" style="shape=tableRow;horizontal=0;startSize=0;swimlaneHead=0;swimlaneBody=0;top=0;left=0;bottom=0;right=0;collapsible=0;dropTarget=0;fillColor=none;points=[[0,0.5],[1,0.5]];portConstraint=eastwest;rounded=1;strokeWidth=2;" parent="HRD3fttDgB3bU4ztWuwS-48" vertex="1">
          <mxGeometry width="240" height="40" as="geometry" />
        </mxCell>
        <mxCell id="HRD3fttDgB3bU4ztWuwS-50" value="x[n]" style="shape=partialRectangle;html=1;whiteSpace=wrap;connectable=0;overflow=hidden;fillColor=none;top=0;left=0;bottom=0;right=0;pointerEvents=1;rounded=1;strokeWidth=2;" parent="HRD3fttDgB3bU4ztWuwS-49" vertex="1">
          <mxGeometry width="40" height="40" as="geometry">
            <mxRectangle width="40" height="40" as="alternateBounds" />
          </mxGeometry>
        </mxCell>
        <mxCell id="HRD3fttDgB3bU4ztWuwS-51" value="x[n-1]" style="shape=partialRectangle;html=1;whiteSpace=wrap;connectable=0;overflow=hidden;fillColor=none;top=0;left=0;bottom=0;right=0;pointerEvents=1;rounded=1;strokeWidth=2;" parent="HRD3fttDgB3bU4ztWuwS-49" vertex="1">
          <mxGeometry x="40" width="40" height="40" as="geometry">
            <mxRectangle width="40" height="40" as="alternateBounds" />
          </mxGeometry>
        </mxCell>
        <mxCell id="HRD3fttDgB3bU4ztWuwS-52" value="&lt;span style=&quot;&quot;&gt;x[n-2]&lt;/span&gt;" style="shape=partialRectangle;html=1;whiteSpace=wrap;connectable=0;overflow=hidden;fillColor=none;top=0;left=0;bottom=0;right=0;pointerEvents=1;rounded=1;strokeWidth=2;" parent="HRD3fttDgB3bU4ztWuwS-49" vertex="1">
          <mxGeometry x="80" width="40" height="40" as="geometry">
            <mxRectangle width="40" height="40" as="alternateBounds" />
          </mxGeometry>
        </mxCell>
        <mxCell id="HRD3fttDgB3bU4ztWuwS-63" value="&lt;span style=&quot;&quot;&gt;x[n-3]&lt;/span&gt;" style="shape=partialRectangle;html=1;whiteSpace=wrap;connectable=0;overflow=hidden;fillColor=none;top=0;left=0;bottom=0;right=0;pointerEvents=1;rounded=1;strokeWidth=2;" parent="HRD3fttDgB3bU4ztWuwS-49" vertex="1">
          <mxGeometry x="120" width="40" height="40" as="geometry">
            <mxRectangle width="40" height="40" as="alternateBounds" />
          </mxGeometry>
        </mxCell>
        <mxCell id="HRD3fttDgB3bU4ztWuwS-64" value="&lt;span style=&quot;&quot;&gt;x[n-4]&lt;/span&gt;" style="shape=partialRectangle;html=1;whiteSpace=wrap;connectable=0;overflow=hidden;fillColor=none;top=0;left=0;bottom=0;right=0;pointerEvents=1;rounded=1;strokeWidth=2;" parent="HRD3fttDgB3bU4ztWuwS-49" vertex="1">
          <mxGeometry x="160" width="40" height="40" as="geometry">
            <mxRectangle width="40" height="40" as="alternateBounds" />
          </mxGeometry>
        </mxCell>
        <mxCell id="HRD3fttDgB3bU4ztWuwS-71" value="&lt;span style=&quot;&quot;&gt;x[n-5]&lt;/span&gt;" style="shape=partialRectangle;html=1;whiteSpace=wrap;connectable=0;overflow=hidden;fillColor=none;top=0;left=0;bottom=0;right=0;pointerEvents=1;rounded=1;strokeWidth=2;" parent="HRD3fttDgB3bU4ztWuwS-49" vertex="1">
          <mxGeometry x="200" width="40" height="40" as="geometry">
            <mxRectangle width="40" height="40" as="alternateBounds" />
          </mxGeometry>
        </mxCell>
        <mxCell id="HRD3fttDgB3bU4ztWuwS-55" value="" style="shape=image;html=1;verticalAlign=top;verticalLabelPosition=bottom;labelBackgroundColor=#ffffff;imageAspect=0;aspect=fixed;image=https://cdn4.iconfinder.com/data/icons/ionicons/512/icon-ios7-plus-outline-128.png;rounded=1;strokeWidth=2;" parent="1" vertex="1">
          <mxGeometry x="306" y="120" width="68" height="68" as="geometry" />
        </mxCell>
        <mxCell id="HRD3fttDgB3bU4ztWuwS-56" value="" style="shape=table;startSize=0;container=1;collapsible=0;childLayout=tableLayout;rounded=1;strokeWidth=2;fontSize=6;" parent="1" vertex="1">
          <mxGeometry x="320" y="30" width="40" height="40" as="geometry" />
        </mxCell>
        <mxCell id="HRD3fttDgB3bU4ztWuwS-57" value="" style="shape=tableRow;horizontal=0;startSize=0;swimlaneHead=0;swimlaneBody=0;top=0;left=0;bottom=0;right=0;collapsible=0;dropTarget=0;fillColor=none;points=[[0,0.5],[1,0.5]];portConstraint=eastwest;rounded=1;strokeWidth=2;" parent="HRD3fttDgB3bU4ztWuwS-56" vertex="1">
          <mxGeometry width="40" height="40" as="geometry" />
        </mxCell>
        <mxCell id="HRD3fttDgB3bU4ztWuwS-58" value="&lt;span style=&quot;font-size: 8px;&quot;&gt;x[n-(N-1)]&lt;/span&gt;" style="shape=partialRectangle;html=1;whiteSpace=wrap;connectable=0;overflow=hidden;fillColor=none;top=0;left=0;bottom=0;right=0;pointerEvents=1;rounded=1;strokeWidth=2;fontSize=8;" parent="HRD3fttDgB3bU4ztWuwS-57" vertex="1">
          <mxGeometry width="40" height="40" as="geometry">
            <mxRectangle width="40" height="40" as="alternateBounds" />
          </mxGeometry>
        </mxCell>
        <mxCell id="HRD3fttDgB3bU4ztWuwS-67" value="" style="endArrow=blockThin;html=1;rounded=0;exitX=0.083;exitY=0.998;exitDx=0;exitDy=0;exitPerimeter=0;strokeWidth=2;endFill=1;" parent="1" source="HRD3fttDgB3bU4ztWuwS-49" edge="1">
          <mxGeometry width="50" height="50" relative="1" as="geometry">
            <mxPoint x="60" y="80" as="sourcePoint" />
            <mxPoint x="300" y="180" as="targetPoint" />
            <Array as="points">
              <mxPoint x="60" y="80" />
              <mxPoint x="160" y="180" />
            </Array>
          </mxGeometry>
        </mxCell>
        <mxCell id="HRD3fttDgB3bU4ztWuwS-70" value="" style="endArrow=blockThin;html=1;rounded=0;exitX=0.083;exitY=0.998;exitDx=0;exitDy=0;exitPerimeter=0;strokeWidth=2;endFill=1;" parent="1" target="HRD3fttDgB3bU4ztWuwS-55" edge="1">
          <mxGeometry width="50" height="50" relative="1" as="geometry">
            <mxPoint x="339.91999999999996" y="70" as="sourcePoint" />
            <mxPoint x="280" y="180" as="targetPoint" />
            <Array as="points">
              <mxPoint x="339.9999999999999" y="110.08000000000004" />
            </Array>
          </mxGeometry>
        </mxCell>
        <mxCell id="HRD3fttDgB3bU4ztWuwS-72" value="" style="endArrow=blockThin;html=1;rounded=0;exitX=0.083;exitY=0.998;exitDx=0;exitDy=0;exitPerimeter=0;strokeWidth=2;endFill=1;" parent="1" edge="1">
          <mxGeometry width="50" height="50" relative="1" as="geometry">
            <mxPoint x="100.00000000000011" y="70.00000000000011" as="sourcePoint" />
            <mxPoint x="300" y="170" as="targetPoint" />
            <Array as="points">
              <mxPoint x="100" y="90" />
              <mxPoint x="180" y="170" />
            </Array>
          </mxGeometry>
        </mxCell>
        <mxCell id="HRD3fttDgB3bU4ztWuwS-73" value="" style="endArrow=blockThin;html=1;rounded=0;strokeWidth=2;endFill=1;" parent="1" edge="1">
          <mxGeometry width="50" height="50" relative="1" as="geometry">
            <mxPoint x="140" y="70" as="sourcePoint" />
            <mxPoint x="300" y="160" as="targetPoint" />
            <Array as="points">
              <mxPoint x="140" y="100" />
              <mxPoint x="200" y="160" />
            </Array>
          </mxGeometry>
        </mxCell>
        <mxCell id="HRD3fttDgB3bU4ztWuwS-74" value="" style="endArrow=blockThin;html=1;rounded=0;exitX=0.083;exitY=0.998;exitDx=0;exitDy=0;exitPerimeter=0;strokeWidth=2;endFill=1;" parent="1" edge="1">
          <mxGeometry width="50" height="50" relative="1" as="geometry">
            <mxPoint x="179.91999999999985" y="70" as="sourcePoint" />
            <mxPoint x="300" y="150" as="targetPoint" />
            <Array as="points">
              <mxPoint x="180" y="100" />
              <mxPoint x="230" y="150" />
            </Array>
          </mxGeometry>
        </mxCell>
        <mxCell id="HRD3fttDgB3bU4ztWuwS-75" value="" style="endArrow=blockThin;html=1;rounded=0;exitX=0.083;exitY=0.998;exitDx=0;exitDy=0;exitPerimeter=0;strokeWidth=2;endFill=1;" parent="1" edge="1">
          <mxGeometry width="50" height="50" relative="1" as="geometry">
            <mxPoint x="219.92000000000007" y="70" as="sourcePoint" />
            <mxPoint x="300" y="140" as="targetPoint" />
            <Array as="points">
              <mxPoint x="220" y="100" />
              <mxPoint x="260" y="140" />
            </Array>
          </mxGeometry>
        </mxCell>
        <mxCell id="HRD3fttDgB3bU4ztWuwS-76" value="" style="endArrow=blockThin;html=1;rounded=0;strokeWidth=2;endFill=1;" parent="1" edge="1">
          <mxGeometry width="50" height="50" relative="1" as="geometry">
            <mxPoint x="380" y="153.89999999999998" as="sourcePoint" />
            <mxPoint x="450" y="153.89999999999998" as="targetPoint" />
            <Array as="points">
              <mxPoint x="380.0799999999999" y="153.98000000000002" />
            </Array>
          </mxGeometry>
        </mxCell>
        <mxCell id="HRD3fttDgB3bU4ztWuwS-80" value="y[n]" style="edgeLabel;html=1;align=center;verticalAlign=middle;resizable=0;points=[];fontSize=12;" parent="HRD3fttDgB3bU4ztWuwS-76" vertex="1" connectable="0">
          <mxGeometry x="0.233" y="1" relative="1" as="geometry">
            <mxPoint x="17" y="-23" as="offset" />
          </mxGeometry>
        </mxCell>
        <mxCell id="HRD3fttDgB3bU4ztWuwS-77" value="" style="endArrow=none;dashed=1;html=1;dashPattern=1 4;strokeWidth=3;rounded=0;" parent="1" edge="1">
          <mxGeometry width="50" height="50" relative="1" as="geometry">
            <mxPoint x="290" y="50" as="sourcePoint" />
            <mxPoint x="310" y="50" as="targetPoint" />
          </mxGeometry>
        </mxCell>
        <mxCell id="HRD3fttDgB3bU4ztWuwS-81" value="" style="endArrow=blockThin;html=1;rounded=0;exitX=0.083;exitY=0.998;exitDx=0;exitDy=0;exitPerimeter=0;strokeWidth=2;endFill=1;" parent="1" edge="1">
          <mxGeometry width="50" height="50" relative="1" as="geometry">
            <mxPoint x="259.96000000000004" y="70" as="sourcePoint" />
            <mxPoint x="300" y="130" as="targetPoint" />
            <Array as="points">
              <mxPoint x="260" y="110" />
              <mxPoint x="280" y="130" />
            </Array>
          </mxGeometry>
        </mxCell>
      </root>
    </mxGraphModel>
  </diagram>
</mxfile>
